<svg xmlns="http://www.w3.org/2000/svg" version="1.1" xmlns:xlink="http://www.w3.org/1999/xlink" xmlns:svgjs="http://svgjs.com/svgjs" width="16" height="16"><svg width="16" height="16" viewBox="0 0 16 16" fill="none" xmlns="http://www.w3.org/2000/svg">
<path d="M10.4 0.998125C10.4 0.679688 10.2025 0 9.6025 0C9.253 0 8.93075 0.2835 8.83025 0.724375L5.63025 14.7244C5.6097 14.8138 5.59926 14.9064 5.59922 14.9994C5.5775 15.3219 5.8 16 6.4 16C6.748 16 7.06825 15.7138 7.16875 15.2744L10.3688 1.27437C10.39 1.18156 10.4 1.08906 10.4 0.998125ZM4.4 4.47188C4.4 3.90063 4.02625 3.47187 3.6 3.47187C3.3953 3.47187 3.1905 3.56953 3.0345 3.76487L0.2345 7.26487C0.078125 7.4875 0 7.74375 0 7.97188C0 8.2 0.078125 8.5125 0.234375 8.70625L3.03438 12.2063C3.19 12.4031 3.395 12.4719 3.6 12.4719C4.02625 12.4719 4.4 12.0428 4.4 11.4719C4.4 11.216 4.32188 10.96 4.16563 10.7647L1.93125 7.97188L4.16575 5.17875C4.3225 5.00938 4.4 4.75625 4.4 4.47188ZM16 7.97188C16 7.716 15.9219 7.46 15.7656 7.26469L12.9656 3.76469C12.81 3.59688 12.605 3.47187 12.4 3.47187C11.9738 3.47187 11.6 3.90094 11.6 4.47188C11.6 4.72775 11.6781 4.98375 11.8344 5.17906L14.0689 7.97219L11.8344 10.7653C11.6775 10.9875 11.6 11.2438 11.6 11.4719C11.6 12.0431 11.9738 12.4719 12.4 12.4719C12.6047 12.4719 12.8095 12.3742 12.9655 12.1789L15.7655 8.67887C15.9225 8.5125 16 8.25625 16 7.97188Z" fill="#FF8906"></path>
</svg><style>@media (prefers-color-scheme: light) { :root { filter: none; } }
</style></svg>