<svg width="21" height="20" viewBox="0 0 21 20" fill="currentColor" xmlns="http://www.w3.org/2000/svg">
<path fill-rule="evenodd" clip-rule="evenodd" d="M10.5182 0.00769043C4.99319 0.00769043 0.518188 4.48269 0.518188 10.0077C0.518188 14.4327 3.38069 18.1702 7.35569 19.4952C7.85569 19.5827 8.04319 19.2827 8.04319 19.0202C8.04319 18.7827 8.03069 17.9952 8.03069 17.1577C5.51819 17.6202 4.86819 16.5452 4.66819 15.9827C4.55569 15.6952 4.06819 14.8077 3.64319 14.5702C3.29319 14.3827 2.79319 13.9202 3.63069 13.9077C4.41819 13.8952 4.98069 14.6327 5.16819 14.9327C6.06819 16.4452 7.50569 16.0202 8.08069 15.7577C8.16819 15.1077 8.43069 14.6702 8.71819 14.4202C6.49319 14.1702 4.16819 13.3077 4.16819 9.48269C4.16819 8.39519 4.55569 7.49519 5.19319 6.79519C5.09319 6.54519 4.74319 5.52019 5.29319 4.14519C5.29319 4.14519 6.13069 3.88269 8.04319 5.17019C8.84319 4.94519 9.69319 4.83269 10.5432 4.83269C11.3932 4.83269 12.2432 4.94519 13.0432 5.17019C14.9557 3.87019 15.7932 4.14519 15.7932 4.14519C16.3432 5.52019 15.9932 6.54519 15.8932 6.79519C16.5307 7.49519 16.9182 8.38269 16.9182 9.48269C16.9182 13.3202 14.5807 14.1702 12.3557 14.4202C12.7182 14.7327 13.0307 15.3327 13.0307 16.2702C13.0307 17.6077 13.0182 18.6827 13.0182 19.0202C13.0182 19.2827 13.2057 19.5952 13.7057 19.4952C15.6908 18.825 17.4158 17.5491 18.6379 15.8472C19.86 14.1452 20.5176 12.1029 20.5182 10.0077C20.5182 4.48269 16.0432 0.00769043 10.5182 0.00769043Z" fill="#FFFFFE"/>
</svg>
