<svg width="16" height="15" viewBox="0 0 16 15" fill="currentColor" xmlns="http://www.w3.org/2000/svg">
<path d="M9.30675 6.93713C9.16232 6.93713 9.01788 6.88212 8.90787 6.77182C8.02801 5.89197 6.59638 5.89169 5.71624 6.77182C5.4962 6.99214 5.13851 6.99214 4.91847 6.77182C4.69816 6.55151 4.69816 6.19437 4.91847 5.97406C6.2384 4.65385 8.38599 4.65413 9.70563 5.97406C9.92595 6.19437 9.92595 6.55151 9.70563 6.77182C9.59562 6.88212 9.4509 6.93713 9.30675 6.93713Z" fill="#FFFFFE"/>
<path d="M8.90788 10.1556C8.041 10.1556 7.17412 9.82558 6.5143 9.16576C6.29398 8.94545 6.29398 8.58831 6.5143 8.368C6.73433 8.14768 7.09203 8.14768 7.31206 8.368C8.19192 9.24785 9.62355 9.24813 10.5037 8.368C10.7237 8.14768 11.0814 8.14768 11.3015 8.368C11.5218 8.58831 11.5218 8.94545 11.3015 9.16576C10.6414 9.82558 9.77448 10.1556 8.90788 10.1556Z" fill="#FFFFFE"/>
<path d="M10.9023 9.33079C10.7579 9.33079 10.6135 9.27578 10.5034 9.16548C10.2831 8.94516 10.2831 8.58803 10.5034 8.36771L13.655 5.21614C13.875 4.99582 14.2327 4.99582 14.4528 5.21614C14.6731 5.43646 14.6731 5.79359 14.4528 6.01391L11.3012 9.16548C11.1912 9.27578 11.0467 9.33079 10.9023 9.33079Z" fill="#FFFFFE"/>
<path d="M6.15518 14.0779C6.01075 14.0779 5.86632 14.0229 5.7563 13.9126C5.53599 13.6923 5.53599 13.3351 5.7563 13.1148L7.51799 11.3531C7.73802 11.1328 8.09572 11.1328 8.31575 11.3531C8.53607 11.5735 8.53607 11.9306 8.31575 12.1509L6.55407 13.9126C6.44405 14.0229 6.29962 14.0779 6.15518 14.0779Z" fill="#FFFFFE"/>
<path d="M2.1658 10.0884C2.02137 10.0884 1.87694 10.0334 1.76692 9.9231C1.54661 9.70278 1.54661 9.34565 1.76692 9.12533L4.91849 5.97404C5.13881 5.75373 5.49622 5.75373 5.71626 5.97404C5.93658 6.19436 5.93658 6.55149 5.71626 6.77181L2.56469 9.9231C2.45439 10.0331 2.30996 10.0884 2.1658 10.0884Z" fill="#FFFFFE"/>
<path d="M8.30277 3.95177C8.15833 3.95177 8.01418 3.89676 7.90388 3.78675C7.68357 3.56643 7.68357 3.2093 7.90388 2.9887L9.66557 1.22673C9.88589 1.00641 10.243 1.00641 10.4636 1.22673C10.6839 1.44705 10.6839 1.80418 10.4636 2.02478L8.70193 3.78675C8.59163 3.89648 8.44692 3.95177 8.30277 3.95177Z" fill="#FFFFFE"/>
<path d="M4.16051 14.8857C3.28799 14.8857 2.41547 14.5613 1.76693 13.9125C0.469291 12.6149 0.469291 10.4227 1.76693 9.12508C1.98697 8.90476 2.34466 8.90476 2.5647 9.12508C2.78501 9.34539 2.78501 9.70253 2.5647 9.92284C1.69979 10.7877 1.69979 12.2496 2.5647 13.1145C3.4296 13.9794 4.89142 13.9794 5.75632 13.1145C5.97636 12.8942 6.33406 12.8942 6.55409 13.1145C6.77441 13.3348 6.77441 13.6919 6.55409 13.9122C5.90555 14.5613 5.03303 14.8857 4.16051 14.8857Z" fill="#FFFFFE"/>
<path d="M14.0539 6.17924C13.9094 6.17924 13.765 6.12423 13.655 6.01393C13.4347 5.79361 13.4347 5.43648 13.655 5.21616C14.5199 4.35126 14.5199 2.88944 13.655 2.02454C12.7901 1.15963 11.3283 1.15963 10.4634 2.02454C10.2433 2.24485 9.88564 2.24485 9.6656 2.02454C9.44529 1.80422 9.44529 1.44709 9.6656 1.22677C10.9632 -0.0708698 13.1554 -0.0708698 14.453 1.22677C15.7507 2.52441 15.7507 4.71657 14.453 6.01421C14.3427 6.12423 14.1983 6.17924 14.0539 6.17924Z" fill="#FFFFFE"/>
</svg>
