<svg width="50" height="40" viewBox="0 0 50 40" fill="none" xmlns="http://www.w3.org/2000/svg">
<path d="M32.5 2.49531C32.5 1.69922 31.8828 0 30.0078 0C28.9156 0 27.9086 0.70875 27.5945 1.81094L17.5945 36.8109C17.5303 37.0345 17.4977 37.2659 17.4976 37.4985C17.4297 38.3047 18.125 40 20 40C21.0875 40 22.0883 39.2846 22.4023 38.1859L32.4023 3.18594C32.4688 2.95391 32.5 2.72266 32.5 2.49531ZM13.75 11.1797C13.75 9.75156 12.582 8.67969 11.25 8.67969C10.6103 8.67969 9.97031 8.92383 9.48281 9.41219L0.732813 18.1622C0.244141 18.7188 0 19.3594 0 19.9297C0 20.5 0.244141 21.2812 0.732422 21.7656L9.48242 30.5156C9.96875 31.0078 10.6094 31.1797 11.25 31.1797C12.582 31.1797 13.75 30.107 13.75 28.6797C13.75 28.04 13.5059 27.4 13.0176 26.9117L6.03516 19.9297L13.018 12.9469C13.5078 12.5234 13.75 11.8906 13.75 11.1797ZM50 19.9297C50 19.29 49.7559 18.65 49.2676 18.1617L40.5176 9.41172C40.0312 8.99219 39.3906 8.67969 38.75 8.67969C37.418 8.67969 36.25 9.75234 36.25 11.1797C36.25 11.8194 36.4941 12.4594 36.9824 12.9477L43.9652 19.9305L36.9824 26.9133C36.4922 27.4688 36.25 28.1094 36.25 28.6797C36.25 30.1078 37.418 31.1797 38.75 31.1797C39.3897 31.1797 40.0297 30.9355 40.5172 30.4472L49.2672 21.6972C49.7578 21.2812 50 20.6406 50 19.9297Z" fill="#FF8906"/>
</svg>
