<svg width="50" height="50" viewBox="0 0 75 62" fill="none" xmlns="http://www.w3.org/2000/svg">
<path d="M48.75 3.86773C48.75 2.63379 47.8242 0 45.0117 0C43.3734 0 41.8629 1.09856 41.3918 2.80695L26.3918 57.057C26.2955 57.4035 26.2465 57.7622 26.2464 58.1227C26.1445 59.3723 27.1875 62 30 62C31.6313 62 33.1324 60.8911 33.6035 59.1882L48.6035 4.9382C48.7031 4.57855 48.75 4.22012 48.75 3.86773ZM20.625 17.3285C20.625 15.1149 18.873 13.4535 16.875 13.4535C15.9155 13.4535 14.9555 13.8319 14.2242 14.5889L1.09922 28.1514C0.366211 29.0141 0 30.007 0 30.891C0 31.775 0.366211 32.9859 1.09863 33.7367L14.2236 47.2992C14.9531 48.0621 15.9141 48.3285 16.875 48.3285C18.873 48.3285 20.625 46.6659 20.625 44.4535C20.625 43.462 20.2588 42.47 19.5264 41.7132L9.05273 30.891L19.527 20.0677C20.2617 19.4113 20.625 18.4305 20.625 17.3285ZM75 30.891C75 29.8995 74.6338 28.9075 73.9014 28.1507L60.7764 14.5882C60.0469 13.9379 59.0859 13.4535 58.125 13.4535C56.127 13.4535 54.375 15.1161 54.375 17.3285C54.375 18.32 54.7412 19.312 55.4736 20.0689L65.9479 30.8922L55.4736 41.7156C54.7383 42.5766 54.375 43.5695 54.375 44.4535C54.375 46.6671 56.127 48.3285 58.125 48.3285C59.0845 48.3285 60.0445 47.9501 60.7758 47.1931L73.9008 33.6306C74.6367 32.9859 75 31.993 75 30.891Z" fill="#FF8906"/>
</svg>
