<svg width="40" height="40" viewBox="0 0 40 40" fill="none" xmlns="http://www.w3.org/2000/svg">
<path d="M5 11.6667V20.0001C5 21.3262 5.52678 22.5979 6.46447 23.5356C7.40215 24.4733 8.67392 25.0001 10 25.0001C11.3261 25.0001 12.5979 24.4733 13.5355 23.5356C14.4732 22.5979 15 21.3262 15 20.0001V11.6667H16.6667L23.3333 21.6667C24.7067 23.8651 26.575 25.0001 29.1667 25.0001C30.7138 25.0001 32.1975 24.3855 33.2915 23.2915C34.3854 22.1976 35 20.7138 35 19.1667C35 17.6197 34.3854 16.1359 33.2915 15.042C32.1975 13.948 30.7138 13.3334 29.1667 13.3334C25.7883 13.3334 23.9383 15.0001 23.3333 18.3334C22.93 20.5501 21.82 25.0001 20 31.6667" stroke="#A7A9BE" stroke-width="3.33333" stroke-linecap="round" stroke-linejoin="round"/>
</svg>
