<svg width="75" height="75" viewBox="0 0 75 75" fill="none" xmlns="http://www.w3.org/2000/svg">
<path fill-rule="evenodd" clip-rule="evenodd" d="M45.8136 1.3733C46.275 1.92898 46.5106 2.67869 46.9814 4.17841L57.2661 36.9398C53.4029 34.9958 49.2566 33.6346 44.9702 32.9031L38.2738 10.9599C38.2204 10.7849 38.11 10.6313 37.9591 10.5222C37.8083 10.4131 37.625 10.3542 37.4368 10.3545C37.2485 10.3547 37.0655 10.4141 36.9149 10.5236C36.7643 10.6332 36.6544 10.787 36.6015 10.9622L29.9863 32.892C25.6805 33.6201 21.5151 34.9835 17.635 36.9347L27.9701 4.17102C28.4423 2.67386 28.6785 1.92557 29.1402 1.37074C29.5477 0.88103 30.0777 0.500671 30.6797 0.265909C31.3618 0 32.1692 0 33.7837 0H41.1654C42.782 0 43.5903 0 44.2729 0.266477C44.8753 0.502142 45.4056 0.883125 45.8136 1.3733Z" fill="#FFFFFE"/>
<path fill-rule="evenodd" clip-rule="evenodd" d="M47.044 38.4989C45.3486 39.9048 41.9645 40.8636 38.0665 40.8636C33.2824 40.8636 29.2725 39.4193 28.2081 37.4767C27.8279 38.5903 27.7426 39.8642 27.7426 40.6781C27.7426 40.6781 27.4918 44.6747 30.3585 47.4543C30.3586 47.1111 30.4283 46.7712 30.5638 46.4542C30.6993 46.1371 30.8978 45.8491 31.1481 45.6064C31.3984 45.3638 31.6955 45.1713 32.0225 45.04C32.3495 44.9087 32.6999 44.8412 33.0539 44.8412C35.6047 44.8412 35.6018 46.9991 35.5998 48.7503L35.5995 48.9065C35.5995 51.5642 37.2747 53.8426 39.6571 54.8034C39.2904 54.0715 39.1004 53.2682 39.1016 52.4545C39.1016 49.9196 40.6362 48.9756 42.4198 47.8784C43.8392 47.0057 45.416 46.0361 46.5026 44.0909C47.0878 43.043 47.3934 41.8698 47.3915 40.6781C47.3922 39.9388 47.275 39.2035 47.044 38.4989Z" fill="#FF5D01"/>
<path fill-rule="evenodd" clip-rule="evenodd" d="M47.044 38.4989C45.3486 39.9048 41.9645 40.8636 38.0665 40.8636C33.2824 40.8636 29.2725 39.4193 28.2081 37.4767C27.8279 38.5903 27.7426 39.8642 27.7426 40.6781C27.7426 40.6781 27.4918 44.6747 30.3585 47.4543C30.3586 47.1111 30.4283 46.7712 30.5638 46.4542C30.6993 46.1371 30.8978 45.8491 31.1481 45.6064C31.3984 45.3638 31.6955 45.1713 32.0225 45.04C32.3495 44.9087 32.6999 44.8412 33.0539 44.8412C35.6047 44.8412 35.6018 46.9991 35.5998 48.7503L35.5995 48.9065C35.5995 51.5642 37.2747 53.8426 39.6571 54.8034C39.2904 54.0715 39.1004 53.2682 39.1016 52.4545C39.1016 49.9196 40.6362 48.9756 42.4198 47.8784C43.8392 47.0057 45.416 46.0361 46.5026 44.0909C47.0878 43.043 47.3934 41.8698 47.3915 40.6781C47.3922 39.9388 47.275 39.2035 47.044 38.4989Z" fill="url(#paint0_linear_536_23)"/>
<path fill-rule="evenodd" clip-rule="evenodd" d="M8.20723 62.9659C12.8578 62.9659 15.2971 64.5795 15.2971 67.6301V70.6028C15.2988 72.0102 15.3234 72.7915 15.411 73.5321L15.4292 73.6798C15.4611 73.9259 15.5001 74.1719 15.5479 74.4392H13.2908C13.1769 73.7318 13.1314 72.958 13.1314 72.1401C11.7864 73.9747 9.48398 74.8591 5.67656 74.8591C2.23418 74.8591 0 73.6432 0 71.5432C0 70.5483 0.433008 69.6861 1.2082 69.1335C2.0291 68.5588 3.10049 68.1608 5.99561 68.006L13.1086 67.6082V67.3869C13.1086 65.6185 11.2849 64.5796 8.20723 64.5796C5.08389 64.5796 3.1916 65.4418 2.82686 67.0776H0.433594C0.79834 64.6457 3.71631 62.9656 8.20752 62.9656L8.20723 62.9659ZM25.4514 62.9659C29.3725 62.9659 31.9028 63.9827 33.0428 65.7071L31.1962 66.569C30.102 65.1986 28.4376 64.5796 25.246 64.5796C22.442 64.5796 21.1424 65.1764 21.1424 66.3259C21.1424 67.2321 21.9861 67.6526 23.4905 67.7628L29.0306 68.183C31.9942 68.4261 33.1567 69.3546 33.1567 71.1673C33.1567 73.356 31.2645 74.8591 26.5456 74.8591C22.3737 74.8591 19.9342 73.7097 18.5435 71.6759L20.3446 70.7253C21.3706 72.3389 23.4905 73.2233 26.8418 73.2233C29.6004 73.2233 30.9911 72.604 30.9911 71.3C30.9911 70.3938 30.4438 70.0398 28.643 69.9071L23.1486 69.4872C20.4357 69.2662 18.9996 68.3378 18.9996 66.4145C18.9996 64.2702 21.416 62.9659 25.4514 62.9659ZM66.8156 62.9659C71.6716 62.9659 75 65.3531 75 68.9125C75 72.4716 71.6716 74.8591 66.8156 74.8591C61.96 74.8591 58.6315 72.4716 58.6315 68.9125C58.6315 65.3531 61.9597 62.9659 66.8156 62.9659ZM40.0099 59.6497V63.3855H45.7093V65.0438H40.0099V70.1724C40.0099 72.0736 41.0815 72.8253 43.0646 72.8253C43.9992 72.8253 44.9572 72.6926 45.755 72.5156V74.3065C45.1849 74.5497 43.8855 74.7486 42.8142 74.7486C38.5966 74.7486 37.8214 72.5599 37.8214 70.3716V65.0438H34.2422V63.3858H37.8214V60.5119L40.0099 59.6497ZM56.1826 63.0543C56.7979 63.0543 57.2086 63.0761 57.6873 63.1869V65.2207C57.1629 65.1321 56.7753 65.0881 56.1598 65.0881C54.3589 65.0881 53.3329 65.5744 52.5349 66.4364C51.6231 67.3651 51.3038 68.7134 51.3038 70.3051V74.4392H49.1382V63.3858H51.1444V66.5909C51.8054 64.4466 53.7431 63.054 56.1826 63.054V63.0543ZM13.1086 69.0452L6.42891 69.4429C3.21445 69.6418 2.30244 70.2168 2.30244 71.4989C2.30244 72.6926 3.76143 73.2895 6.40605 73.2895C10.3046 73.2895 13.1086 71.8747 13.1086 69.5537V69.0452ZM66.8156 64.7122C63.2364 64.7122 60.934 66.348 60.934 68.9125C60.934 71.4767 63.2367 73.1128 66.8156 73.1128C70.3723 73.1128 72.6976 71.4767 72.6976 68.9125C72.6976 66.348 70.372 64.7122 66.8156 64.7122Z" fill="#FFFFFE"/>
<defs>
<linearGradient id="paint0_linear_536_23" x1="2721.82" y1="-672.849" x2="1902.17" y2="1096.64" gradientUnits="userSpaceOnUse">
<stop stop-color="#FF1639"/>
<stop offset="1" stop-color="#FF1639" stop-opacity="0"/>
</linearGradient>
</defs>
</svg>
