<svg width="64" height="75" viewBox="0 0 64 75" fill="none" xmlns="http://www.w3.org/2000/svg">
<path d="M13.75 75C21.3367 75 27.5 69.4031 27.5 62.5V50H13.75C6.16333 50 0 55.5969 0 62.5C0 69.4031 6.16333 75 13.75 75Z" fill="#0ACF83"/>
<path d="M0 37.5C0 30.603 6.16333 25 13.75 25H27.5V50H13.75C6.16333 50 0 44.4031 0 37.5Z" fill="#A259FF"/>
<path d="M0 12.5C0 5.60303 6.16333 0 13.75 0H27.5V25H13.75C6.16333 25 0 19.4031 0 12.5Z" fill="#F24E1E"/>
<path d="M27.5 0H41.25C48.8367 0 55 5.60303 55 12.5C55 19.4031 48.8434 25 41.25 25H27.5V0Z" fill="#FF7262"/>
<path d="M55 37.5C55 44.4031 48.8434 50 41.25 50C33.6566 50 27.5 44.4031 27.5 37.5C27.5 30.603 33.6566 25 41.25 25C48.8434 25 55 30.603 55 37.5Z" fill="#1ABCFE"/>
</svg>
