<svg width="95" height="75" viewBox="0 0 95 75" fill="none" xmlns="http://www.w3.org/2000/svg">
<path d="M81.7734 43.0389C78.4521 43.0587 75.5761 43.8983 73.164 45.1485C72.2734 43.293 71.3828 41.6718 71.2345 40.461C71.0675 39.0548 70.8634 38.1952 71.0675 36.5157C71.2715 34.8358 72.1992 32.453 72.1992 32.2577C72.1805 32.0819 71.9949 31.2225 70.084 31.203C68.173 31.1835 66.5215 31.5936 66.3359 32.121C66.1504 32.6483 65.7793 33.8593 65.5381 35.1093C65.2041 36.9452 61.7158 43.4491 59.7304 46.8671C59.081 45.5389 58.5244 44.3671 58.4129 43.4294C58.2461 42.0233 58.0418 41.1637 58.2461 39.4843C58.4502 37.8044 59.3779 35.4218 59.3779 35.2264C59.3593 35.0507 59.1738 34.1913 57.2629 34.1718C55.3515 34.1522 53.7004 34.5624 53.5148 35.0897C53.3293 35.6171 53.1252 36.8671 52.717 38.078C52.3271 39.2889 47.6884 50.1483 46.4824 52.9804C45.8701 54.4257 45.3322 55.578 44.9424 56.3593C44.5527 57.1405 44.9238 56.4179 44.8867 56.496C44.5527 57.16 44.3672 57.5311 44.3672 57.5311V57.5509C44.1074 58.0391 43.8291 58.5077 43.699 58.5077C43.6062 58.5077 43.4207 57.1991 43.7361 55.4024C44.4226 51.6327 46.0926 45.754 46.0742 45.5391C46.0742 45.4415 46.3894 44.4061 44.9978 43.879C43.6433 43.3516 43.1611 44.2305 43.0496 44.2305C42.9383 44.2305 42.8455 44.543 42.8455 44.543C42.8455 44.543 44.3484 37.9221 39.9695 37.9221C37.2234 37.9221 33.4383 41.0667 31.5642 43.9378C30.3767 44.6214 27.8533 46.0665 25.1814 47.6096C24.1609 48.1956 23.1033 48.8206 22.1014 49.387L21.8974 49.1522C16.5908 43.1952 6.77537 38.9764 7.18357 30.9686C7.33201 28.0585 8.29685 20.3827 26.0353 11.0858C40.5636 3.46863 52.1974 5.55847 54.2197 10.2069C57.0957 16.8475 48.0039 29.1913 32.9006 30.9686C27.1486 31.6522 24.124 29.3085 23.3634 28.4296C22.5656 27.5116 22.4543 27.4725 22.1574 27.6483C21.675 27.9218 21.9718 28.7421 22.1574 29.2303C22.6027 30.4608 24.4582 32.6483 27.6125 33.7421C30.3769 34.6991 37.131 35.2264 45.2951 31.9061C54.4425 28.1757 61.5861 17.8241 59.4894 9.17176C57.3556 0.363163 43.4767 -2.52746 30.3586 2.37488C22.5469 5.30457 14.0859 9.87488 7.99998 15.871C0.763649 22.9804 -0.386742 29.1913 0.09568 31.7694C1.78434 40.9686 13.8261 46.9647 18.6504 51.3983C18.4092 51.5348 18.1865 51.6716 17.9824 51.7889C15.5703 53.0387 6.38572 58.0975 4.08494 63.4489C1.48728 69.5036 4.49314 73.8593 6.49705 74.4452C12.6943 76.2616 19.04 72.9999 22.4726 67.6288C25.8865 62.2577 25.4785 55.285 23.9013 52.1014L23.8455 51.9843L25.7381 50.8124C26.9629 50.0507 28.1689 49.3475 29.2264 48.7419C28.6328 50.4411 28.2058 52.4528 27.9834 55.3825C27.7236 58.8202 29.0595 63.2731 30.8222 65.0309C31.6015 65.7925 32.5293 65.8122 33.1045 65.8122C35.1455 65.8122 36.0732 64.0346 37.0937 61.9059C38.3554 59.3083 39.4687 56.3005 39.4687 56.3005C39.4687 56.3005 38.0771 64.445 41.8808 64.445C43.2724 64.445 44.664 62.5505 45.2949 61.5739V61.5934C45.2949 61.5934 45.332 61.5348 45.4062 61.3981C45.4841 61.277 45.5583 61.1533 45.6289 61.0272V60.9882C46.1855 59.9725 47.4287 57.6483 49.2842 53.8007C51.6775 48.8397 53.9785 42.6288 53.9785 42.6288C53.9785 42.6288 54.2011 44.1522 54.8877 46.6522C55.2957 48.1368 56.1863 49.7577 56.8728 51.3397C56.3162 52.16 55.9822 52.629 55.9822 52.629L56.0008 52.6485C55.5556 53.2735 55.0545 53.9378 54.5351 54.6016C52.6426 56.9845 50.3789 59.6995 50.082 60.4807C49.7295 61.3985 49.8037 62.0821 50.4902 62.6292C50.9912 63.0198 51.8818 63.0977 52.8281 63.0198C54.5351 62.9024 55.7226 62.4534 56.3164 62.1798C57.2441 61.8282 58.3017 61.3009 59.3222 60.5196C61.1777 59.0745 62.3095 57.0237 62.1982 54.2893C62.1426 52.7854 61.6787 51.3011 61.1035 49.8948C61.2705 49.6409 61.4377 49.3868 61.6045 49.1136C64.5361 44.6016 66.7998 39.6409 66.7998 39.6409C66.7998 39.6409 67.0224 41.1643 67.709 43.6643C68.0613 44.9339 68.7666 46.3208 69.3974 47.688C66.6513 50.0512 64.9258 52.7856 64.332 54.5825C63.2373 57.9028 64.0908 59.4067 65.7051 59.7583C66.4285 59.9145 67.4678 59.563 68.2469 59.2114C69.2117 58.8794 70.3807 58.3128 71.457 57.4731C73.3125 56.0278 75.0937 54.0161 75.001 51.3013C74.9453 50.0513 74.6299 48.8208 74.2031 47.6489C76.541 46.6333 79.5652 46.0473 83.4062 46.5356C91.6631 47.5512 93.2959 52.9809 92.9806 55.2466C92.6652 57.5124 90.9396 58.7622 90.3642 59.1528C89.789 59.5239 89.6035 59.6608 89.6592 59.9341C89.7334 60.3444 89.9931 60.3247 90.4941 60.2468C91.1806 60.1294 94.8359 58.3913 94.9844 54.2118C95.207 48.8399 90.3642 42.9805 81.7734 43.0389ZM18.0937 65.6366C15.3662 68.7811 11.5254 69.9725 9.89256 68.9569C8.12986 67.8827 8.8162 63.2538 12.1748 59.9139C14.2158 57.8827 16.8691 56.0077 18.6133 54.8554C19.0029 54.6014 19.5967 54.2305 20.3017 53.7811C20.4131 53.7032 20.4873 53.6639 20.4873 53.6639C20.6172 53.5858 20.7656 53.4882 20.914 53.3905C22.1572 58.1561 20.9697 62.3358 18.0937 65.6366ZM38.04 51.3593C37.0937 53.8007 35.0898 60.0702 33.8838 59.7186C32.8445 59.4257 32.2138 54.6796 33.6795 49.9921C34.4217 47.6286 35.9988 44.8163 36.9265 43.7223C38.4297 41.9645 40.0623 41.3786 40.4707 42.1012C40.9531 43.0389 38.6338 49.8358 38.04 51.3593ZM54.498 59.6405C54.0898 59.8555 53.7187 60.0116 53.5517 59.8946C53.4219 59.8165 53.7185 59.5235 53.7185 59.5235C53.7185 59.5235 55.7781 57.1993 56.5945 56.1251C57.0584 55.5003 57.615 54.7776 58.2088 53.9571V54.1915C58.209 57.0038 55.6484 58.8788 54.498 59.6405ZM67.1892 56.5936C66.8924 56.3593 66.9297 55.6366 67.9314 53.371C68.3213 52.4725 69.2117 50.9686 70.7517 49.5428C70.9373 50.1288 71.0488 50.695 71.0301 51.2225C71.0117 54.7382 68.6367 56.0468 67.1892 56.5936Z" fill="#CF649A"/>
</svg>
