<svg width="123" height="75" viewBox="0 0 123 75" fill="none" xmlns="http://www.w3.org/2000/svg">
<path fill-rule="evenodd" clip-rule="evenodd" d="M61.44 0C45.06 0 34.82 8.33333 30.72 25C36.8667 16.6701 44.0333 13.5455 52.22 15.6263C56.9 16.8133 60.22 20.262 63.94 24.079C69.94 30.3009 76.94 37.4949 92.16 37.4949C108.54 37.4949 118.78 29.1616 122.88 12.4949C116.74 20.8316 109.573 23.9562 101.38 21.8686C96.7 20.6815 93.38 17.2329 89.66 13.4159C83.64 7.16332 76.67 0 61.44 0ZM30.72 37.4949C14.34 37.4949 4.1 45.8282 0 62.4949C6.15333 54.165 13.32 51.0404 21.5 53.1212C26.18 54.3082 29.5 57.7569 33.22 61.5841C39.22 67.7957 46.22 75 61.44 75C77.82 75 88.06 66.6667 92.16 50C86.02 58.3299 78.8533 61.4477 70.66 59.3533C65.98 58.1662 62.66 54.7176 58.94 50.9005C52.94 44.6787 45.94 37.4744 30.72 37.4744V37.4949Z" fill="#06B6D4"/>
</svg>
